<?xml version="1.0" standalone="no"?>
<!DOCTYPE svg PUBLIC "-//W3C//DTD SVG 20010904//EN"
 "http://www.w3.org/TR/2001/REC-SVG-20010904/DTD/svg10.dtd">
<svg version="1.0" xmlns="http://www.w3.org/2000/svg"
 width="1024.000000pt" height="1024.000000pt" viewBox="0 0 1024.000000 1024.000000"
 preserveAspectRatio="xMidYMid meet">

<g transform="translate(0.000000,1024.000000) scale(0.100000,-0.100000)"
fill="#000000" stroke="none">
<path d="M4036 7218 c-20 -135 -39 -226 -62 -294 -112 -346 -405 -650 -764
-795 -52 -21 -155 -53 -227 -70 l-133 -32 0 -114 c0 -104 2 -114 18 -109 87
26 862 110 1082 118 l75 3 3 -197 2 -198 85 0 85 0 0 204 0 203 53 6 c229 27
1108 31 1637 8 l145 -6 3 -207 2 -208 85 0 85 0 0 200 0 200 48 0 c163 0 1021
-97 1115 -126 15 -5 17 5 17 109 l0 114 -117 28 c-239 56 -392 128 -578 271
-264 203 -438 504 -486 842 l-11 82 -92 0 -91 0 -18 -91 c-57 -295 -242 -542
-502 -670 -133 -66 -229 -89 -365 -89 -429 0 -813 338 -890 783 l-12 67 -94 0
-93 0 -5 -32z m342 -640 c132 -140 309 -249 497 -305 81 -24 106 -27 245 -27
130 0 169 4 240 23 107 28 247 94 344 161 92 64 217 192 276 284 l45 70 6
-150 c4 -82 7 -236 8 -343 l1 -193 -77 6 c-408 34 -1324 34 -1710 2 l-53 -5 0
222 c0 122 3 279 7 349 l6 127 50 -76 c27 -42 79 -107 115 -145z m1949 -96
c104 -140 308 -324 451 -404 29 -17 51 -33 48 -35 -2 -3 -44 0 -93 6 -48 6
-185 18 -303 26 -118 9 -216 17 -217 18 0 1 -4 135 -8 297 l-6 295 36 -64 c20
-35 62 -98 92 -139z m-2294 -109 l-6 -279 -290 -23 c-159 -12 -295 -25 -303
-28 -30 -11 -12 8 33 34 198 116 432 348 535 530 17 30 32 52 34 50 2 -2 1
-130 -3 -284z"/>
<path d="M8160 5111 c-85 -27 -135 -57 -174 -103 -89 -104 -85 -259 8 -353 52
-52 108 -78 248 -115 188 -50 228 -77 228 -150 0 -81 -62 -115 -201 -108 -97
4 -171 33 -237 92 l-40 36 -55 -87 c-41 -67 -52 -91 -43 -100 30 -31 135 -83
209 -103 108 -29 281 -25 367 9 124 48 197 136 207 249 6 71 -8 127 -47 181
-55 75 -104 98 -364 172 -100 29 -136 57 -136 108 0 67 66 111 169 111 74 0
141 -20 215 -65 32 -19 60 -35 63 -35 2 0 22 39 44 87 45 97 48 89 -46 133
-127 59 -305 77 -415 41z"/>
<path d="M1787 4918 c-42 -106 -130 -329 -195 -495 -66 -166 -118 -304 -117
-305 2 -2 54 -1 116 2 l112 5 17 50 c10 28 27 71 39 98 l20 47 202 -2 201 -3
37 -98 37 -98 112 -2 c62 -1 112 -1 112 0 0 1 -137 347 -352 891 l-41 102
-112 0 -112 0 -76 -192z m261 -251 c34 -92 62 -168 62 -170 0 -1 -60 -1 -133
1 l-134 3 66 174 c36 95 69 170 72 167 3 -4 33 -82 67 -175z"/>
<path d="M2456 5088 c4 -13 46 -120 94 -238 79 -195 136 -339 249 -625 l39
-100 117 0 117 0 189 475 c104 261 191 483 195 493 5 16 -3 17 -107 15 l-112
-3 -133 -350 c-74 -192 -137 -358 -142 -369 -8 -18 -47 80 -230 571 l-57 153
-113 0 c-113 0 -113 0 -106 -22z"/>
<path d="M3617 5018 l2 -93 145 -3 146 -3 0 -399 0 -400 105 0 105 0 0 400 0
400 145 0 145 0 0 95 0 95 -397 0 -398 0 2 -92z"/>
<path d="M4642 4738 l3 -373 29 -63 c64 -139 204 -209 401 -200 88 4 110 9
173 38 82 38 151 104 185 178 21 45 22 63 27 420 l5 372 -107 0 -108 0 0 -340
c0 -319 -1 -343 -20 -379 -27 -54 -71 -87 -130 -100 -99 -21 -203 25 -236 106
-11 25 -14 109 -14 373 l0 340 -105 0 -106 0 3 -372z"/>
<path d="M5750 4616 l0 -495 101 -3 c68 -2 103 1 106 8 2 6 3 81 1 168 l-3
156 95 0 95 0 94 -161 c52 -88 99 -162 105 -164 12 -4 236 -12 236 -8 0 1 -50
82 -111 179 -100 159 -110 179 -94 189 83 49 109 71 135 111 80 126 58 333
-46 423 -89 79 -153 91 -471 91 l-243 0 0 -494z m533 281 c56 -36 79 -137 44
-191 -36 -55 -58 -61 -219 -61 -81 0 -148 3 -148 8 0 4 0 66 0 138 l0 131 148
-4 c120 -2 153 -6 175 -21z"/>
<path d="M7133 5093 c-6 -16 -60 -156 -208 -533 -29 -74 -80 -204 -114 -289
-34 -85 -61 -155 -61 -155 0 -1 51 0 112 1 l113 1 40 99 40 98 204 0 203 0 38
-99 37 -99 109 1 c83 1 108 4 106 14 -4 13 -212 544 -322 821 l-63 157 -114 0
c-99 0 -114 -2 -120 -17z m192 -420 l62 -168 -126 -5 c-69 -3 -129 -4 -132 -3
-4 2 22 76 57 165 35 90 64 169 64 177 0 28 13 0 75 -166z"/>
<path d="M3150 3597 c-40 -14 -80 -68 -80 -108 0 -63 27 -88 134 -127 57 -20
77 -43 60 -69 -16 -26 -115 -25 -143 1 -20 18 -21 18 -40 -5 -27 -32 -26 -34
11 -60 23 -17 50 -24 95 -27 106 -7 163 32 163 113 0 55 -26 87 -87 109 -99
35 -113 44 -113 70 0 47 59 59 125 26 l40 -20 17 22 c23 29 19 38 -23 60 -47
24 -116 31 -159 15z"/>
<path d="M3705 3601 c-41 -10 -86 -35 -107 -58 -66 -72 -61 -233 8 -295 75
-67 234 -61 297 10 61 68 61 217 -1 285 -40 45 -137 73 -197 58z m137 -110
c23 -25 28 -41 28 -81 0 -66 -13 -96 -52 -120 -40 -24 -79 -25 -124 -4 -42 20
-64 59 -64 114 0 86 50 133 134 126 41 -3 55 -9 78 -35z"/>
<path d="M4170 3400 l0 -200 35 0 35 0 0 80 0 80 85 0 85 0 0 38 0 38 -82 -1
-83 0 -3 48 -3 47 100 0 101 0 0 35 0 35 -135 0 -135 0 0 -200z"/>
<path d="M4640 3565 l0 -35 60 0 60 0 0 -165 0 -165 35 0 35 0 0 165 0 165 60
0 60 0 0 35 0 35 -155 0 -155 0 0 -35z"/>
<path d="M5182 3400 l50 -200 47 0 46 0 27 103 c15 56 33 122 39 147 l12 45 9
-35 c5 -19 23 -86 40 -147 l30 -113 44 0 43 0 15 53 c17 61 86 334 86 342 0 3
-18 5 -39 5 l-39 0 -17 -77 c-38 -178 -47 -214 -50 -211 -2 2 -17 57 -34 123
-17 66 -34 130 -37 143 -5 18 -13 22 -50 22 -49 0 -41 17 -94 -190 l-26 -105
-32 135 c-18 74 -32 141 -32 148 0 8 -15 12 -44 12 l-44 0 50 -200z"/>
<path d="M5879 3400 l-76 -200 43 0 c41 0 43 2 56 41 l14 41 84 0 84 1 15 -41
c15 -40 17 -42 58 -42 l43 0 -13 33 c-8 17 -42 107 -78 199 l-64 168 -45 0
-45 0 -76 -200z m145 52 c32 -100 34 -92 -23 -92 -28 0 -51 3 -51 7 0 14 45
143 50 143 3 0 13 -26 24 -58z"/>
<path d="M6390 3401 l0 -201 40 0 40 0 0 70 0 70 34 0 c32 0 38 -5 78 -70 42
-69 44 -70 86 -70 23 0 42 2 42 5 0 3 -21 37 -46 77 -29 45 -42 74 -35 76 7 2
24 14 39 27 24 21 27 31 27 84 0 55 -3 64 -33 93 l-32 33 -120 3 -120 4 0
-201z m214 113 c21 -20 20 -63 -1 -86 -12 -13 -31 -18 -75 -18 l-58 0 0 60 0
60 59 0 c41 0 65 -5 75 -16z"/>
<path d="M6920 3400 l0 -200 135 0 135 0 0 35 0 35 -95 0 -95 0 0 45 0 45 80
0 80 0 0 41 0 41 -80 -4 -80 -3 0 47 0 48 95 0 95 0 0 35 0 35 -135 0 -135 0
0 -200z"/>
</g>
</svg>
